<svg version="1.1" id="svg-draw" xmlns="http://www.w3.org/2000/svg" xmlns:xlink="http://www.w3.org/1999/xlink" x="0px" y="0px" width="100%" height="100%" viewBox="0 0 200 320" xml:space="preserve">
	<g id="svg-content">
		<g transform="matrix(0.70,0,0,0.70,30,40)">
			
<g>
	<path id="XMLID_18_" fill="#008BD5" d="M130.5,91.3c14.4-7.1,31.5-2,38.3,11.5c6.8,13.5,0.7,30.3-13.5,37.6l5.3,10.6
		c20.5-10.5,29.2-34.5,19.4-53.9c-9.7-19.3-34.2-26.6-54.8-16.5L130.5,91.3z"/>
	<polygon id="XMLID_17_" fill="#008BD5" points="59.9,188.4 65.2,199 160.7,150.9 155.4,140.4 	"/>
	<polygon id="XMLID_16_" fill="#008BD5" points="70,108.4 75.3,119 130.5,91.2 125.2,80.7 	"/>
	<g>
		<path id="XMLID_15_" fill="#008BD5" d="M134.7,100.8c8.9-4.4,19.6-1.2,23.8,7.2c4.2,8.4,0.4,18.8-8.4,23.4l3.3,6.6
			c12.7-6.5,18.1-21.5,12.1-33.5c-6-12-21.3-16.6-34.1-10.2L134.7,100.8z"/>
		<polygon id="XMLID_14_" fill="#008BD5" points="90.7,161.3 94,167.8 153.5,137.9 150.2,131.3 		"/>
		<polygon id="XMLID_13_" fill="#008BD5" points="97.1,111.5 100.4,118 134.7,100.8 131.4,94.2 		"/>
	</g>
	<g>
		<path id="XMLID_12_" fill="#008BD5" d="M136.8,107.1c5.5-2.7,12.1-0.7,14.7,4.4c2.6,5.2,0.3,11.6-5.2,14.4l2,4.1
			c7.8-4,11.2-13.2,7.4-20.6c-3.7-7.4-13.1-10.2-21-6.3L136.8,107.1z"/>
		<polygon id="XMLID_11_" fill="#008BD5" points="109.7,144.3 111.8,148.3 148.4,129.9 146.4,125.9 		"/>
		<polygon id="XMLID_10_" fill="#008BD5" points="113.7,113.6 115.7,117.7 136.9,107.1 134.8,103 		"/>
	</g>
	<path id="XMLID_9_" fill="#008BD5" d="M69.5,108.6c-14.4,7-31.5,1.9-38.3-11.6c-6.8-13.5-0.7-30.3,13.5-37.6l-5.3-10.6
		C19,59.4,10.3,83.4,20,102.7c9.7,19.3,34.2,26.6,54.8,16.5L69.5,108.6z"/>
	<polygon id="XMLID_8_" fill="#008BD5" points="139.8,11.6 134.5,1 39.3,48.9 44.6,59.5 	"/>
	<polygon id="XMLID_7_" fill="#008BD5" points="130,91.4 124.7,80.9 69.5,108.6 74.8,119.2 	"/>
	<g>
		<path id="XMLID_6_" fill="#008BD5" d="M65.3,99.1c-9,4.4-19.6,1.2-23.8-7.2c-4.2-8.4-0.4-18.8,8.4-23.4l-3.3-6.6
			c-12.7,6.5-18.1,21.5-12.1,33.5c6,12,21.3,16.6,34.1,10.2L65.3,99.1z"/>
		<polygon id="XMLID_5_" fill="#008BD5" points="109.3,38.6 106,32 46.5,62 49.8,68.5 		"/>
		<polygon id="XMLID_4_" fill="#008BD5" points="102.9,88.4 99.6,81.8 65.3,99.1 68.6,105.6 		"/>
	</g>
	<g>
		<path id="XMLID_3_" fill="#008BD5" d="M63.2,92.8c-5.5,2.7-12.1,0.7-14.7-4.4c-2.6-5.2-0.3-11.6,5.2-14.4l-2-4
			c-7.8,4-11.2,13.2-7.4,20.6c3.7,7.4,13.1,10.2,21,6.3L63.2,92.8z"/>
		<polygon id="XMLID_2_" fill="#008BD5" points="90.3,55.5 88.2,51.5 51.6,69.9 53.6,74 		"/>
		<polygon id="XMLID_1_" fill="#008BD5" points="86.3,86.2 84.3,82.2 63.2,92.8 65.2,96.8 		"/>
	</g>
</g>

		</g>
		<text font-family="Lucida Grande, Microsoft Yahei" letter-spacing="4" text-anchor="middle" fill="#3e3a39" stroke="#3e3a39" stroke-width="1" font-size="50" dx="100" dy="250">CONST.X</text>
		<text font-family="Lucida Grande, Microsoft Yahei" text-anchor="middle" fill="#888888" font-size="23" dx="100" dy="285"></text>
	</g>
</svg>